<svg height="423.25333pt" viewBox="0 0 423.25333 423.25333" width="423.25333pt" xmlns="http://www.w3.org/2000/svg"><path d="m314.027344 170.667969c0 86.714843-70.296875 157.011719-157.015625 157.011719-86.714844 0-157.011719-70.296876-157.011719-157.011719 0-86.71875 70.296875-157.015625 157.011719-157.015625 86.71875 0 157.015625 70.296875 157.015625 157.015625zm0 0" fill="#efefd2"/><path d="m136.527344 95.574219h197.980468v273.066406h-197.980468zm0 0" fill="#fff"/><path d="m334.507812 375.464844h-197.980468c-3.769532 0-6.828125-3.050782-6.828125-6.824219v-273.066406c0-3.773438 3.058593-6.828125 6.828125-6.828125h197.980468c3.769532 0 6.824219 3.054687 6.824219 6.828125v273.066406c0 3.773437-3.054687 6.824219-6.824219 6.824219zm-191.15625-13.652344h184.328126v-259.414062h-184.328126zm0 0" fill="#4c241d"/><path d="m13.652344 184.320312v91.25c0 13.699219 11.105468 24.804688 24.804687 24.804688h123.40625c16.175781 0 29.285157-13.113281 29.285157-29.285156v-86.769532zm0 0" fill="#fff"/><path d="m161.863281 307.199219h-123.40625c-17.441406 0-31.628906-14.183594-31.628906-31.625v-91.253907c0-3.773437 3.054687-6.828124 6.824219-6.828124h177.496094c3.769531 0 6.824218 3.054687 6.824218 6.828124v86.765626c0 19.914062-16.199218 36.113281-36.109375 36.113281zm-141.382812-116.050781v84.425781c0 9.910156 8.0625 17.972656 17.976562 17.972656h123.40625c12.382813 0 22.457031-10.074219 22.457031-22.460937v-79.9375zm0 0" fill="#4c241d"/><path d="m169.441406 136.535156h-134.085937c-11.984375 0-21.703125 9.714844-21.703125 21.703125v26.082031h177.496094v-26.082031c0-11.988281-9.71875-21.703125-21.707032-21.703125zm0 0" fill="#fc8c29"/><path d="m191.148438 191.148438h-177.496094c-3.769532 0-6.824219-3.054688-6.824219-6.828126v-26.078124c0-15.734376 12.796875-28.535157 28.527344-28.535157h134.085937c15.730469 0 28.53125 12.800781 28.53125 28.535157v26.078124c0 3.773438-3.054687 6.828126-6.824218 6.828126zm-170.667969-13.65625h163.839843v-19.25c0-8.210938-6.671874-14.882813-14.878906-14.882813h-134.085937c-8.203125 0-14.875 6.671875-14.875 14.882813zm0 0" fill="#4c241d"/><path d="m68.265625 157.011719c-3.769531 0-6.824219-3.050781-6.824219-6.824219v-27.308594c0-3.773437 3.054688-6.824218 6.824219-6.824218s6.828125 3.050781 6.828125 6.824218v27.308594c0 3.773438-3.058594 6.824219-6.828125 6.824219zm0 0" fill="#4c241d"/><path d="m132.808594 170.667969c-20.566406 0-37.234375 16.667969-37.234375 37.234375s37.234375 65.164062 37.234375 65.164062 37.238281-44.597656 37.238281-65.164062-16.671875-37.234375-37.238281-37.234375zm0 50.179687c-7.148438 0-12.941406-5.796875-12.941406-12.945312 0-7.148438 5.792968-12.941406 12.941406-12.941406 7.148437 0 12.945312 5.792968 12.945312 12.941406 0 7.148437-5.796875 12.945312-12.945312 12.945312zm0 0" fill="#bd53b5"/><path d="m132.808594 279.894531c-2.023438 0-3.941406-.902343-5.238282-2.457031-3.972656-4.757812-38.824218-47.144531-38.824218-69.539062 0-24.292969 19.765625-44.058594 44.0625-44.058594s44.0625 19.765625 44.0625 44.058594c0 22.394531-34.847656 64.78125-38.820313 69.539062-1.296875 1.554688-3.21875 2.457031-5.242187 2.457031zm0-102.402343c-16.765625 0-30.410156 13.640624-30.410156 30.40625 0 11.601562 16.953124 37.101562 30.410156 54.300781 13.460937-17.207031 30.410156-42.714844 30.410156-54.300781 0-16.765626-13.640625-30.40625-30.410156-30.40625zm0 50.179687c-10.898438 0-19.769532-8.871094-19.769532-19.773437 0-10.898438 8.871094-19.765626 19.769532-19.765626 10.902344 0 19.769531 8.867188 19.769531 19.765626 0 10.902343-8.867187 19.773437-19.769531 19.773437zm0-25.886719c-3.375 0-6.117188 2.738282-6.117188 6.113282s2.742188 6.121093 6.117188 6.121093 6.117187-2.746093 6.117187-6.121093-2.742187-6.113282-6.117187-6.113282zm0 0" fill="#4c241d"/><path d="m136.527344 389.75c0 14.734375 11.941406 26.675781 26.675781 26.675781h144.628906c14.730469 0 26.675781-11.941406 26.675781-26.675781v-34.761719h-197.980468zm0 0" fill="#6b4f5b"/><path d="m307.828125 423.253906h-144.628906c-18.472657 0-33.5-15.027344-33.5-33.5v-34.765625c0-3.773437 3.058593-6.828125 6.828125-6.828125h197.980468c3.769532 0 6.824219 3.054688 6.824219 6.828125v34.765625c0 18.472656-15.03125 33.5-33.503906 33.5zm-164.476563-61.441406v27.941406c0 10.945313 8.90625 19.847656 19.847657 19.847656h144.628906c10.949219 0 19.851563-8.902343 19.851563-19.847656v-27.941406zm0 0" fill="#4c241d"/><path d="m334.507812 116.054688v-36.789063c0-13.617187-11.039062-24.652344-24.652343-24.652344h-148.679688c-13.613281 0-24.648437 11.035157-24.648437 24.652344v36.789063zm0 0" fill="#6b4f5b"/><g fill="#4c241d"><path d="m334.507812 122.878906h-197.980468c-3.769532 0-6.828125-3.050781-6.828125-6.824218v-36.789063c0-17.359375 14.121093-31.480469 31.476562-31.480469h148.679688c17.359375 0 31.476562 14.121094 31.476562 31.480469v36.789063c0 3.773437-3.054687 6.824218-6.824219 6.824218zm-191.15625-13.652344h184.328126v-29.960937c0-9.824219-7.996094-17.824219-17.824219-17.824219h-148.679688c-9.824219 0-17.820312 8-17.820312 17.824219v29.960937zm0 0"/><path d="m251.183594 386.066406c0 8.453125-6.851563 15.304688-15.304688 15.304688s-15.308594-6.851563-15.308594-15.304688c0-8.457031 6.855469-15.308594 15.308594-15.308594s15.304688 6.851563 15.304688 15.308594zm0 0"/><path d="m402.773438 314.027344c-3.769532 0-6.828126-3.054688-6.828126-6.828125v-102.398438c0-3.773437 3.058594-6.828125 6.828126-6.828125 3.769531 0 6.828124 3.054688 6.828124 6.828125v102.398438c0 3.773437-3.058593 6.828125-6.828124 6.828125zm0 0"/><path d="m368.640625 390.828125c-3.769531 0-6.828125-3.054687-6.828125-6.828125v-259.414062c0-3.773438 3.058594-6.824219 6.828125-6.824219s6.824219 3.050781 6.824219 6.824219v259.414062c0 3.773438-3.054688 6.828125-6.824219 6.828125zm0 0"/></g><path d="m390.6875 6.828125h-112.359375c-14.21875 0-25.742187 11.523437-25.742187 25.738281v78.226563c0 14.21875 11.523437 25.742187 25.742187 25.742187h15.21875l-8.855469 37.691406 42.988282-37.691406h63.007812c14.214844 0 25.738281-11.523437 25.738281-25.742187v-78.226563c0-14.214844-11.523437-25.738281-25.738281-25.738281zm0 0" fill="#fff"/><path d="m284.691406 181.054688c-1.207031 0-2.425781-.320313-3.511718-.972657-2.546876-1.527343-3.808594-4.527343-3.132813-7.414062l6.882813-29.308594h-6.601563c-17.957031 0-32.566406-14.605469-32.566406-32.566406v-78.226563c0-17.960937 14.609375-32.566406 32.566406-32.566406h112.359375c17.953125 0 32.566406 14.605469 32.566406 32.566406v78.226563c0 17.960937-14.613281 32.566406-32.566406 32.566406h-60.4375l-41.058594 36c-1.273437 1.121094-2.882812 1.695313-4.5 1.695313zm-6.363281-167.402344c-10.429687 0-18.914063 8.488281-18.914063 18.914062v78.226563c0 10.425781 8.484376 18.914062 18.914063 18.914062h15.21875c2.085937 0 4.054687.953125 5.351563 2.585938 1.296874 1.632812 1.773437 3.773437 1.296874 5.800781l-3.984374 16.953125 26.96875-23.644531c1.246093-1.09375 2.84375-1.695313 4.503906-1.695313h63.003906c10.429688 0 18.914062-8.488281 18.914062-18.914062v-78.226563c0-10.425781-8.484374-18.914062-18.914062-18.914062zm0 0" fill="#4c241d"/><path d="m297.433594 54.613281c0 5.917969-4.796875 10.714844-10.714844 10.714844s-10.714844-4.796875-10.714844-10.714844 4.796875-10.714843 10.714844-10.714843 10.714844 4.796874 10.714844 10.714843zm0 0" fill="#fc8c29"/><path d="m389.121094 61.441406h-75.09375c-3.769532 0-6.828125-3.054687-6.828125-6.828125 0-3.773437 3.058593-6.828125 6.828125-6.828125h75.09375c3.769531 0 6.824218 3.054688 6.824218 6.828125 0 3.773438-3.054687 6.828125-6.824218 6.828125zm0 0" fill="#4c241d"/><path d="m297.433594 95.574219c0 5.917969-4.796875 10.714843-10.714844 10.714843s-10.714844-4.796874-10.714844-10.714843 4.796875-10.714844 10.714844-10.714844 10.714844 4.796875 10.714844 10.714844zm0 0" fill="#a9ba5a"/><path d="m389.121094 102.398438h-75.09375c-3.769532 0-6.828125-3.050782-6.828125-6.824219 0-3.773438 3.058593-6.828125 6.828125-6.828125h75.09375c3.769531 0 6.824218 3.054687 6.824218 6.828125 0 3.773437-3.054687 6.824219-6.824218 6.824219zm0 0" fill="#4c241d"/></svg>