<svg id="Capa_1" enable-background="new 0 0 512 512" height="512" viewBox="0 0 512 512" width="512" xmlns="http://www.w3.org/2000/svg"><path d="m461.892 382.578h-411.784v-248.673c0-22.091 17.909-40 40-40h331.784c22.091 0 40 17.909 40 40z" fill="#5e6b75"/><path d="m461.892 136.357c0-23.446-19.006-42.452-42.452-42.452h-163.44v288.673h205.892z" fill="#4f5961"/><path d="m490.736 478.095h-469.472c-17.456 0-27.45-19.899-17.026-33.901l45.87-61.616h411.784l45.87 61.616c10.424 14.003.43 33.901-17.026 33.901z" fill="#e4e4e4"/><path d="m507.762 444.194-45.87-61.616h-205.892v95.517h234.736c17.456 0 27.45-19.898 17.026-33.901z" fill="#b7b7bc"/><path d="m490.547 33.905h-233.65c-11.723 0-21.226 9.503-21.226 21.226v147.521c0 11.723 9.503 21.226 21.226 21.226h46.249v55.449c0 9.069 10.64 13.96 17.523 8.055l74.025-63.504h95.853c11.723 0 21.226-9.503 21.226-21.226v-147.521c0-11.723-9.503-21.226-21.226-21.226z" fill="#00ddc1"/><path d="m490.547 33.905h-116.825v207.964l20.972-17.991h95.853c11.723 0 21.226-9.503 21.226-21.226v-147.521c0-11.723-9.503-21.226-21.226-21.226z" fill="#00b4bc"/><path d="m376.375 113.502h-87.027c-8.792 0-15.919-7.127-15.919-15.919s7.127-15.919 15.919-15.919h87.027c8.792 0 15.919 7.127 15.919 15.919s-7.127 15.919-15.919 15.919z" fill="#00a88f"/><path d="m458.095 177.18h-168.746c-8.792 0-15.919-7.128-15.919-15.919s7.127-15.919 15.919-15.919h168.747c8.792 0 15.919 7.127 15.919 15.919s-7.128 15.919-15.92 15.919z" fill="#00a88f"/><g fill="#008575"><path d="m412.295 97.583c0-8.792-7.128-15.919-15.919-15.919h-22.653v31.839h22.653c8.791-.001 15.919-7.128 15.919-15.92z"/><path d="m458.095 145.341h-84.373v31.839h84.373c8.792 0 15.919-7.128 15.919-15.919s-7.127-15.92-15.919-15.92z"/></g></svg>