<svg height="496pt" viewBox="0 0 496 496" width="496pt" xmlns="http://www.w3.org/2000/svg"><path d="m488 248c0 132.546875-107.453125 240-240 240s-240-107.453125-240-240 107.453125-240 240-240 240 107.453125 240 240zm0 0" fill="#85d3c1"/><path d="m440 386.800781 2.480469 1.757813c-14.082031 19.601562-31.199219 36.960937-50.480469 51.441406h-104c-17.679688 0-32-14.320312-32-32s14.320312-32 32-32c.320312 0 .558594.078125.800781.078125-.480469-2.636719-.800781-5.277344-.800781-8.078125 0-22.078125 17.921875-40 40-40 9.039062 0 17.28125 3.121094 24 8.160156 6.71875-5.039062 14.960938-8.160156 24-8.160156 22.078125 0 40 17.921875 40 40 0 2.800781-.320312 5.441406-.800781 8.078125.242187 0 .480469-.078125.800781-.078125 9.519531 0 18.160156 4.160156 24 10.800781zm0 0" fill="#f5f7fa"/><path d="m168 216c17.679688 0 32 14.320312 32 32s-14.320312 32-32 32h-128c-17.679688 0-32-14.320312-32-32s14.320312-32 32-32c.320312 0 .558594.078125.800781.078125-.480469-2.636719-.800781-5.277344-.800781-8.078125 0-22.078125 17.921875-40 40-40 9.039062 0 17.28125 3.121094 24 8.160156 6.71875-5.039062 14.960938-8.160156 24-8.160156 22.078125 0 40 17.921875 40 40 0 2.800781-.320312 5.441406-.800781 8.078125.242187 0 .480469-.078125.800781-.078125zm0 0" fill="#f5f7fa"/><path d="m244.800781 120c16.558594-28.640625 47.597657-48 83.199219-48 53.039062 0 96 42.960938 96 96s-42.960938 96-96 96-96-42.960938-96-96c0-17.519531 4.640625-33.921875 12.800781-48zm0 0" fill="#f9d48a"/><g fill="#232323"><path d="m248 0c-136.742188 0-248 111.257812-248 248s111.257812 248 248 248 248-111.257812 248-248-111.257812-248-248-248zm-199.34375 214.464844c-.441406-2.105469-.65625-4.28125-.65625-6.464844 0-17.648438 14.351562-32 32-32 6.855469 0 13.496094 2.273438 19.175781 6.558594l4.824219 3.640625 4.824219-3.640625c5.679687-4.285156 12.320312-6.558594 19.175781-6.558594 17.648438 0 32 14.351562 32 32 0 2.183594-.214844 4.359375-.65625 6.464844l-2.039062 9.894531 10.101562-.28125c.449219-.007813.882812-.054687.601562-.078125 13.230469 0 24 10.769531 24 24s-10.769531 24-24 24h-128.007812c-13.230469 0-24-10.769531-24-24s10.769531-24 23.28125-24.039062l11.414062.398437zm-30.191406 67.136718c6.230468 4.007813 13.589844 6.398438 21.535156 6.398438h128c22.054688 0 40-17.945312 40-40 0-19.320312-13.769531-35.488281-32.007812-39.199219.007812-.265625.007812-.535156.007812-.800781 0-26.472656-21.527344-48-48-48-8.464844 0-16.664062 2.257812-24 6.566406-7.335938-4.308594-15.535156-6.566406-24-6.566406-26.472656 0-48 21.527344-48 48 0 .265625 0 .535156.007812.800781-4.910156 1-9.457031 2.96875-13.542968 5.589844 16.335937-112.046875 113.023437-198.390625 229.535156-198.390625 127.929688 0 232 104.070312 232 232 0 47.601562-14.425781 91.878906-39.113281 128.734375-4.941407-3.925781-10.71875-6.671875-16.894531-7.925781.007812-.273438.007812-.535156.007812-.808594 0-26.472656-21.527344-48-48-48-8.464844 0-16.664062 2.257812-24 6.566406-7.335938-4.308594-15.535156-6.566406-24-6.566406-26.472656 0-48 21.527344-48 48 0 .265625 0 .535156.007812.800781-18.238281 3.710938-32.007812 19.878907-32.007812 39.199219 0 22.054688 17.945312 40 40 40h77.367188c-34.457032 20.304688-74.558594 32-117.367188 32-116.511719 0-213.207031-86.34375-229.535156-198.398438zm370.605468 150.398438h-101.070312c-13.230469 0-24-10.769531-24-24s10.769531-24 23.28125-24.039062l11.414062.398437-2.039062-9.894531c-.441406-2.105469-.65625-4.28125-.65625-6.464844 0-17.648438 14.351562-32 32-32 6.855469 0 13.496094 2.273438 19.175781 6.558594l4.824219 3.640625 4.824219-3.640625c5.679687-4.285156 12.320312-6.558594 19.175781-6.558594 17.648438 0 32 14.351562 32 32 0 2.183594-.214844 4.359375-.65625 6.464844l-2.039062 9.894531 10.101562-.28125c.449219-.007813.882812-.054687.601562-.078125 5.710938 0 11.136719 2.136719 15.441407 5.785156-12.265625 15.824219-26.503907 30.015625-42.378907 42.214844zm0 0"/><path d="m328 272c57.34375 0 104-46.65625 104-104s-46.65625-104-104-104c-36.71875 0-68.984375 19.183594-87.496094 48h-68.503906c-6.617188 0-12-5.382812-12-12s5.382812-12 12-12 12 5.382812 12 12h16c0-15.441406-12.558594-28-28-28s-28 12.558594-28 28 12.558594 28 28 28h60.023438c-5.152344 12.320312-8.023438 25.832031-8.023438 40 0 57.34375 46.65625 104 104 104zm0-192c48.519531 0 88 39.480469 88 88s-39.480469 88-88 88-88-39.480469-88-88 39.480469-88 88-88zm0 0"/><path d="m384 168h16c0-25.625-13.792969-49.519531-35.992188-62.359375l-8.015624 13.847656c17.28125 9.992188 28.007812 28.582031 28.007812 48.511719zm0 0"/><path d="m346 98.273438c-5.847656-1.511719-11.902344-2.273438-18-2.273438v16c4.753906 0 9.464844.59375 14 1.761719zm0 0"/><path d="m188 352h-104c-6.617188 0-12-5.382812-12-12s5.382812-12 12-12 12 5.382812 12 12h16c0-15.441406-12.558594-28-28-28s-28 12.558594-28 28 12.558594 28 28 28h104c6.617188 0 12 5.382812 12 12s-5.382812 12-12 12-12-5.382812-12-12h-16c0 15.441406 12.558594 28 28 28s28-12.558594 28-28-12.558594-28-28-28zm0 0"/><path d="m128 216h16c0-13.230469-10.769531-24-24-24v16c4.40625 0 8 3.59375 8 8zm0 0"/><path d="m368 352v16c4.40625 0 8 3.59375 8 8h16c0-13.230469-10.769531-24-24-24zm0 0"/></g></svg>